<?xml version="1.0" encoding="UTF-8"?>
<!DOCTYPE svg PUBLIC "-//W3C//DTD SVG 1.1//EN" "http://www.w3.org/Graphics/SVG/1.1/DTD/svg11.dtd">
<svg xmlns="http://www.w3.org/2000/svg" version="1.1" width="512px" height="512px" style="shape-rendering:geometricPrecision; text-rendering:geometricPrecision; image-rendering:optimizeQuality; fill-rule:evenodd; clip-rule:evenodd" xmlns:xlink="http://www.w3.org/1999/xlink">
<g><path style="opacity:0.995" fill="#dddddd" d="M 235.5,-0.5 C 248.833,-0.5 262.167,-0.5 275.5,-0.5C 367.401,9.51499 436.234,54.515 482,134.5C 498.218,165.726 508.051,198.726 511.5,233.5C 511.5,248.167 511.5,262.833 511.5,277.5C 502.24,359.21 463.906,423.377 396.5,470C 359.448,493.517 319.114,507.35 275.5,511.5C 262.167,511.5 248.833,511.5 235.5,511.5C 143.599,501.485 74.7659,456.485 29,376.5C 12.7823,345.274 2.94896,312.274 -0.5,277.5C -0.5,262.833 -0.5,248.167 -0.5,233.5C 8.76043,151.79 47.0938,87.6229 114.5,41C 151.552,17.4829 191.886,3.64953 235.5,-0.5 Z"/></g>
<g><path style="opacity:1" fill="#fefefe" d="M 344.5,134.5 C 360.454,144.484 376.121,154.984 391.5,166C 338.963,240.905 286.797,316.072 235,391.5C 195.257,360.379 155.424,329.379 115.5,298.5C 114.417,297.635 114.251,296.635 115,295.5C 126.387,281.62 137.554,267.62 148.5,253.5C 170.643,270.476 192.643,287.642 214.5,305C 217.199,307.51 220.199,309.176 223.5,310C 264.079,251.602 304.413,193.102 344.5,134.5 Z"/></g>
</svg>
