<?xml version="1.0" encoding="UTF-8"?>
<!DOCTYPE svg PUBLIC "-//W3C//DTD SVG 1.1//EN" "http://www.w3.org/Graphics/SVG/1.1/DTD/svg11.dtd">
<svg xmlns="http://www.w3.org/2000/svg" version="1.1" width="512px" height="512px" style="shape-rendering:geometricPrecision; text-rendering:geometricPrecision; image-rendering:optimizeQuality; fill-rule:evenodd; clip-rule:evenodd" xmlns:xlink="http://www.w3.org/1999/xlink">
<g><path style="opacity:0.979" fill="#dddddd" d="M 511.5,247.5 C 511.5,252.833 511.5,258.167 511.5,263.5C 507.241,274.624 501.408,284.958 494,294.5C 443.811,362.201 376.977,403.368 293.5,418C 226.76,426.48 164.76,413.147 107.5,378C 65.4842,352.176 31.3175,318.342 5,276.5C 3.04129,272.096 1.20796,267.762 -0.5,263.5C -0.5,258.167 -0.5,252.833 -0.5,247.5C 3.75883,236.376 9.59216,226.042 17,216.5C 67.1415,148.818 133.975,107.651 217.5,93C 284.223,84.6105 346.223,97.9438 403.5,133C 445.287,159.121 479.454,192.954 506,234.5C 507.959,238.904 509.792,243.238 511.5,247.5 Z M 246.5,132.5 C 256.047,130.39 263.214,133.39 268,141.5C 269.735,148.975 267.235,154.475 260.5,158C 219.786,160.381 197.953,181.881 195,222.5C 190.894,231.477 184.394,233.977 175.5,230C 173.083,228.337 171.25,226.171 170,223.5C 169.416,184.086 186.916,155.92 222.5,139C 230.463,136.178 238.463,134.012 246.5,132.5 Z M 141.5,156.5 C 142.043,156.56 142.376,156.893 142.5,157.5C 129.59,181.954 124.757,207.954 128,235.5C 134.459,278.261 156.292,310.428 193.5,332C 230.738,350.628 268.738,352.295 307.5,337C 366.655,305.858 391.155,257.025 381,190.5C 377.757,178.764 373.757,167.431 369,156.5C 411.666,180.163 446.333,212.497 473,253.5C 473.667,254.833 473.667,256.167 473,257.5C 439.202,308.962 393.702,346.129 336.5,369C 240.467,398.488 155.801,379.155 82.5,311C 65.0049,294.357 50.0049,275.857 37.5,255.5C 63.761,213.57 98.4276,180.57 141.5,156.5 Z"/></g>
<g xmlns="http://www.w3.org/2000/svg"><line x1="10" y1="400" x2="502" y2="100" style="stroke:#dddddd; stroke-width:40"/></g>
<g xmlns="http://www.w3.org/2000/svg"><line x1="31" y1="435" x2="530" y2="130" style="stroke:#fff; stroke-width:40"/></g>
</svg>
