<?xml version="1.0" encoding="UTF-8"?>
<!DOCTYPE svg PUBLIC "-//W3C//DTD SVG 1.1//EN" "http://www.w3.org/Graphics/SVG/1.1/DTD/svg11.dtd">
<svg xmlns="http://www.w3.org/2000/svg" version="1.1" width="512px" height="512px" style="shape-rendering:geometricPrecision; text-rendering:geometricPrecision; image-rendering:optimizeQuality; fill-rule:evenodd; clip-rule:evenodd" xmlns:xlink="http://www.w3.org/1999/xlink">
<g><path style="opacity:0.972" fill="#aaaaaa" d="M 216.5,75.5 C 293.145,71.5497 347.979,103.883 381,172.5C 401.81,228.35 395.31,280.683 361.5,329.5C 385.515,353.681 409.348,378.014 433,402.5C 436.816,411.555 436.15,420.222 431,428.5C 424.463,435.042 416.629,437.209 407.5,435C 404.554,434.194 401.888,432.861 399.5,431C 376.32,407.653 352.986,384.486 329.5,361.5C 282.574,394.201 231.907,401.368 177.5,383C 118.917,358.401 85.0839,314.568 76,251.5C 71.5695,174.821 103.736,119.988 172.5,87C 186.817,81.311 201.484,77.4776 216.5,75.5 Z M 225.5,118.5 C 278.418,118.029 316.584,141.362 340,188.5C 358.917,240.596 348.083,285.429 307.5,323C 265.361,354.309 221.028,357.642 174.5,333C 124.924,298.276 108.757,251.776 126,193.5C 144.74,149.249 177.907,124.249 225.5,118.5 Z"/></g>
</svg>
